HIERARCHY
ROOT Hips
{
	OFFSET 0.000000 0.000000 0.000000
	CHANNELS 6 Xposition Yposition Zposition Zrotation Yrotation Xrotation 
	JOINT LHipJoint
	{
		OFFSET 0.000000 0.000000 0.000000
		CHANNELS 3 Zrotation Yrotation Xrotation
		JOINT LeftUpLeg
		{
			OFFSET 1.363060 -1.794630 0.839290
			CHANNELS 3 Zrotation Yrotation Xrotation
			JOINT LeftLeg
			{
				OFFSET 2.448110 -6.726130 0.000000
				CHANNELS 3 Zrotation Yrotation Xrotation
				JOINT LeftFoot
				{
					OFFSET 2.562200 -7.039590 0.000000
					CHANNELS 3 Zrotation Yrotation Xrotation
					JOINT LeftToeBase
					{
						OFFSET 0.157640 -0.433110 2.322550
						CHANNELS 3 Zrotation Yrotation Xrotation
						End Site
						{
							OFFSET 0.000000 0.000000 0.000000
						}
					}
				}
			}
		}
	}
	JOINT RHipJoint
	{
		OFFSET 0.000000 0.000000 0.000000
		CHANNELS 3 Zrotation Yrotation Xrotation
		JOINT RightUpLeg
		{
			OFFSET -1.305520 -1.794630 0.839290
			CHANNELS 3 Zrotation Yrotation Xrotation
			JOINT RightLeg
			{
				OFFSET -2.542530 -6.985550 0.000000
				CHANNELS 3 Zrotation Yrotation Xrotation
				JOINT RightFoot
				{
					OFFSET -2.568260 -7.056230 0.000000
					CHANNELS 3 Zrotation Yrotation Xrotation
					JOINT RightToeBase
					{
						OFFSET -0.164730 -0.452590 2.363150
						CHANNELS 3 Zrotation Yrotation Xrotation
						End Site
						{
							OFFSET 0.000000 0.000000 0.000000
						}
					}
				}
			}
		}
	}
	JOINT LowerBack
	{
		OFFSET 0.000000 0.000000 0.000000
		CHANNELS 3 Zrotation Yrotation Xrotation
		JOINT Spine
		{
			OFFSET 0.028270 2.035590 -0.193380
			CHANNELS 3 Zrotation Yrotation Xrotation
			JOINT Spine1
			{
				OFFSET 0.056720 2.048850 -0.042750
				CHANNELS 3 Zrotation Yrotation Xrotation
				JOINT Neck
				{
					OFFSET 0.000000 0.000000 0.000000
					CHANNELS 3 Zrotation Yrotation Xrotation
					JOINT Neck1
					{
						OFFSET -0.054170 1.746240 0.172020
						CHANNELS 3 Zrotation Yrotation Xrotation
						JOINT Head
						{
							OFFSET 0.104070 1.761360 -0.123970
							CHANNELS 3 Zrotation Yrotation Xrotation
							End Site
							{
								OFFSET 0.000000 0.000000 0.000000
							}
						}
					}
				}
				JOINT LeftShoulder
				{
					OFFSET 0.000000 0.000000 0.000000
					CHANNELS 3 Zrotation Yrotation Xrotation
					JOINT LeftArm
					{
						OFFSET 3.362410 1.200890 -0.311210
						CHANNELS 3 Zrotation Yrotation Xrotation
						JOINT LeftForeArm
						{
							OFFSET 4.983000 -0.000000 -0.000000
							CHANNELS 3 Zrotation Yrotation Xrotation
							JOINT LeftHand
							{
								OFFSET 3.483560 -0.000000 -0.000000
								CHANNELS 3 Zrotation Yrotation Xrotation
								JOINT LeftFingerBase
								{
									OFFSET 0.000000 0.000000 0.000000
									CHANNELS 3 Zrotation Yrotation Xrotation
									JOINT LeftHandIndex1
									{
										OFFSET 0.715260 -0.000000 -0.000000
										CHANNELS 3 Zrotation Yrotation Xrotation
										End Site
										{
											OFFSET 0.000000 0.000000 0.000000
										}
									}
								}
								JOINT LThumb
								{
									OFFSET 0.000000 0.000000 0.000000
									CHANNELS 3 Zrotation Yrotation Xrotation
									End Site
									{
										OFFSET 0.000000 0.000000 0.000000
									}
								}
							}
						}
					}
				}
				JOINT RightShoulder
				{
					OFFSET 0.000000 0.000000 0.000000
					CHANNELS 3 Zrotation Yrotation Xrotation
					JOINT RightArm
					{
						OFFSET -3.136600 1.374050 -0.404650
						CHANNELS 3 Zrotation Yrotation Xrotation
						JOINT RightForeArm
						{
							OFFSET -5.241900 -0.000000 -0.000000
							CHANNELS 3 Zrotation Yrotation Xrotation
							JOINT RightHand
							{
								OFFSET -3.444170 -0.000000 -0.000000
								CHANNELS 3 Zrotation Yrotation Xrotation
								JOINT RightFingerBase
								{
									OFFSET 0.000000 0.000000 0.000000
									CHANNELS 3 Zrotation Yrotation Xrotation
									JOINT RightHandIndex1
									{
										OFFSET -0.622530 -0.000000 -0.000000
										CHANNELS 3 Zrotation Yrotation Xrotation
										End Site
										{
											OFFSET 0.000000 0.000000 0.000000
										}
									}
								}
								JOINT RThumb
								{
									OFFSET 0.000000 0.000000 0.000000
									CHANNELS 3 Zrotation Yrotation Xrotation
									End Site
									{
										OFFSET 0.000000 0.000000 0.000000
									}
								}
							}
						}
					}
				}
			}
		}
	}
}
MOTION
Frames: 11
Frame Time: 0.008333
-0.963749 17.009470 -0.317644 18.041426 83.494668 22.024333 -10.372805 0.987321 2.862897 -9.794503 1.905169 -27.985004 -1.973421 0.329641 18.608390 0.648039 4.159670 0.752781 0.774400 -0.000000 -25.486900 9.995022 -4.295302 -1.251660 3.074856 -11.938383 5.819845 0.463447 -2.750298 30.803592 -0.145417 2.757371 12.640554 0.905800 0.000000 -81.377800 -5.873184 0.103363 -3.589581 -1.719270 0.372422 -2.957196 -5.303847 0.279798 2.860616 10.826995 -12.466744 -9.805455 -1.835833 -0.118053 -0.554206 0.000000 0.000000 0.000000 -5.325680 25.763077 1.145035 -81.684147 27.040550 5.206871 -3.480296 -22.173730 -0.016186 -5.318733 6.465549 -0.305663 -0.027693 -0.134106 -0.000000 0.000000 0.000000 0.000000 0.000000 0.000000 0.000000 12.814103 -7.191694 -0.005852 45.922406 15.379735 10.704000 1.827549 47.851094 0.009858 1.853751 4.377691 0.071765 0.052653 -0.139945 0.000000 0.000000 0.000000 0.000000 0.000000 0.000000 0.000000 
-0.781726 17.010540 -0.297511 19.382703 83.259140 23.165694 -10.360985 1.054384 2.699262 -10.143098 2.597273 -27.583217 -1.984872 0.371461 19.482107 0.646918 4.124506 0.335098 0.723600 -0.000000 -25.044100 10.236015 -4.309590 -1.347712 2.272714 -12.883788 4.543055 0.186307 -2.907454 33.600872 -0.351522 2.133325 14.805169 0.872400 -0.000000 -81.591100 -6.253704 -0.033007 -3.409031 -1.797382 0.269241 -2.939627 -5.339320 0.178553 2.803659 10.967383 -12.551006 -9.796504 -1.862511 -0.120155 -0.553475 0.000000 0.000000 0.000000 -5.176144 25.486027 1.114461 -81.264734 26.707275 5.644643 -3.475757 -22.590900 -0.015574 -5.188407 6.125539 -0.282545 -0.028983 -0.131221 -0.000000 0.000000 0.000000 0.000000 0.000000 0.000000 0.000000 13.054033 -7.305806 -0.016255 46.462103 14.814502 11.032084 1.848559 47.915496 0.009876 1.872252 4.312696 0.071375 0.054149 -0.136839 0.000000 0.000000 0.000000 0.000000 0.000000 0.000000 0.000000 
-0.602662 17.010956 -0.276764 20.468715 83.008350 24.060221 -10.340736 1.120962 2.542279 -10.458229 3.265300 -27.149843 -2.004617 0.403752 20.294990 0.643630 4.045778 -0.240970 0.654800 -0.000001 -24.645400 10.467997 -4.283441 -1.448291 1.546962 -13.795250 3.208961 -0.072102 -3.035801 36.413198 -0.602343 1.100279 16.780454 0.637899 0.000000 -80.771800 -6.609352 -0.172508 -3.222774 -1.869677 0.160586 -2.920506 -5.373115 0.071964 2.746309 11.097120 -12.632232 -9.789313 -1.889133 -0.122211 -0.553240 0.000000 0.000000 0.000000 -5.024039 25.185272 1.089016 -80.830357 26.304867 6.027751 -3.474723 -22.981201 -0.015028 -5.063016 5.852738 -0.263427 -0.030523 -0.128324 -0.000000 0.000000 0.000000 0.000000 0.000000 0.000000 0.000000 13.276304 -7.416480 -0.027438 47.057371 14.236705 11.346341 1.871176 47.955188 0.009900 1.903734 4.240017 0.071285 0.055525 -0.133715 0.000000 0.000000 0.000000 0.000000 0.000000 0.000000 0.000000 
-0.426337 17.010746 -0.255867 21.219775 82.734237 24.630937 -10.317934 1.187034 2.397055 -10.720414 3.887343 -26.681397 -2.028785 0.428337 21.043649 0.641760 3.948131 -0.949573 0.574200 0.000000 -24.330700 10.679410 -4.218917 -1.552672 0.924068 -14.643587 1.841322 -0.301962 -3.140471 39.195238 -0.883744 -0.339027 18.428591 0.165900 -0.000000 -78.966200 -6.928495 -0.311396 -3.036371 -1.933805 0.049329 -2.899124 -5.404556 -0.037031 2.695830 11.216756 -12.718045 -9.788663 -1.914987 -0.124091 -0.554776 0.000000 0.000000 0.000000 -4.863613 24.894249 1.068298 -80.382509 25.807704 6.369058 -3.477624 -23.314149 -0.014548 -4.944116 5.640691 -0.247909 -0.032370 -0.125371 -0.000000 0.000000 0.000000 0.000000 0.000000 0.000000 0.000000 13.484712 -7.530326 -0.040600 47.691019 13.665310 11.661140 1.894539 47.965994 0.009928 1.946542 4.165345 0.071595 0.056727 -0.130586 0.000000 0.000000 0.000000 0.000000 0.000000 0.000000 0.000000 
-0.252653 17.010186 -0.234870 21.647211 82.422819 24.891456 -10.294548 1.252019 2.266897 -10.928262 4.441887 -26.165057 -2.053852 0.444828 21.707775 0.646557 3.876396 -1.748667 0.490800 0.000000 -24.141500 10.866878 -4.121980 -1.658509 0.407692 -15.404861 0.444614 -0.499548 -3.230199 41.919081 -1.181846 -2.144937 19.628357 -0.540899 -0.000000 -76.285600 -7.210592 -0.444289 -2.857154 -1.990338 -0.059300 -2.878542 -5.435392 -0.143411 2.645829 11.324666 -12.804988 -9.788167 -1.941358 -0.126018 -0.556203 0.000000 0.000000 0.000000 -4.711274 24.583800 1.049391 -79.918972 25.257726 6.633968 -3.484175 -23.621783 -0.014129 -4.830050 5.481658 -0.235190 -0.034461 -0.122402 -0.000000 0.000000 0.000000 0.000000 0.000000 0.000000 0.000000 13.679221 -7.643121 -0.053383 48.363176 13.086978 11.962273 1.919967 47.952723 0.009976 2.010730 4.087461 0.072603 0.057710 -0.127468 0.000000 0.000000 0.000000 0.000000 0.000000 0.000000 0.000000 
-0.081286 17.009642 -0.214069 21.718248 82.062524 24.809762 -10.275511 1.316282 2.152895 -11.074513 4.925894 -25.597171 -2.076479 0.454505 22.278010 0.661868 3.863343 -2.599887 0.409200 0.000000 -24.107600 11.024085 -4.000409 -1.762703 0.010968 -16.057028 -0.969513 -0.665406 -3.312708 44.544454 -1.481174 -4.226134 20.275443 -1.428600 -0.000000 -72.973900 -7.448051 -0.567090 -2.690764 -2.038147 -0.161737 -2.860002 -5.466484 -0.243661 2.596299 11.420007 -12.890442 -9.785743 -1.969069 -0.128097 -0.556874 0.000000 0.000000 0.000000 -4.573334 24.256888 1.030819 -79.439377 24.664213 6.806617 -3.494456 -23.901786 -0.013761 -4.719728 5.363458 -0.224671 -0.036805 -0.119400 -0.000000 0.000000 0.000000 0.000000 0.000000 0.000000 0.000000 13.862233 -7.751338 -0.065704 49.065361 12.499238 12.246340 1.947638 47.914707 0.010045 2.098565 4.009064 0.074311 0.058442 -0.124363 0.000000 0.000000 0.000000 0.000000 0.000000 0.000000 0.000000 
0.088103 17.009462 -0.193894 21.385447 81.646496 24.338310 -10.267730 1.380821 2.054814 -11.148408 5.351484 -24.985396 -2.093894 0.459968 22.758655 0.689591 3.926299 -3.471543 0.330700 -0.000000 -24.242099 11.144221 -3.863010 -1.861917 -0.249054 -16.589221 -2.392474 -0.803942 -3.393155 47.033143 -1.766925 -6.447008 20.309005 -2.395900 0.000000 -69.268900 -7.628658 -0.677484 -2.541896 -2.074878 -0.256441 -2.842524 -5.497513 -0.336094 2.555890 11.504847 -12.979592 -9.786663 -1.997943 -0.130232 -0.558220 0.000000 0.000000 0.000000 -4.443143 23.957373 1.012159 -78.943524 23.991577 6.907903 -3.508814 -24.111750 -0.013433 -4.611334 5.269982 -0.215450 -0.039483 -0.116271 -0.000000 0.000000 0.000000 0.000000 0.000000 0.000000 0.000000 14.041600 -7.859437 -0.080101 49.778250 11.920615 12.528433 1.976552 47.844015 0.010125 2.201365 3.939149 0.076717 0.058937 -0.121274 0.000000 0.000000 0.000000 0.000000 0.000000 0.000000 0.000000 
0.255843 17.010121 -0.174375 20.685423 81.166244 23.514131 -10.272722 1.446392 1.970450 -11.153058 5.732782 -24.331700 -2.104448 0.461966 23.143694 0.731444 4.085945 -4.328638 0.255800 0.000001 -24.547600 11.228601 -3.717992 -1.951447 -0.371734 -16.993659 -3.826090 -0.920618 -3.474686 49.357667 -2.027876 -8.657330 19.720084 -3.319200 0.000001 -65.371100 -7.749919 -0.773250 -2.415040 -2.100483 -0.341338 -2.827106 -5.529596 -0.418646 2.524900 11.580485 -13.070810 -9.789574 -2.028904 -0.132530 -0.559835 0.000000 0.000000 0.000000 -4.323392 23.689271 0.992036 -78.429608 23.245798 6.934641 -3.527184 -24.247626 -0.013129 -4.501079 5.187650 -0.206727 -0.042502 -0.112999 -0.000000 0.000000 0.000000 0.000000 0.000000 0.000000 0.000000 14.222760 -7.965593 -0.097013 50.495316 11.348549 12.803400 2.006976 47.737975 0.010215 2.316555 3.881310 0.079522 0.059225 -0.118210 0.000000 0.000000 0.000000 0.000000 0.000000 0.000000 0.000000 
0.421998 17.012147 -0.155154 19.717661 80.612903 22.433324 -10.287307 1.513544 1.895004 -11.103551 6.084838 -23.626866 -2.107651 0.459789 23.416181 0.788542 4.360550 -5.136568 0.185100 0.000000 -25.010100 11.284322 -3.571559 -2.026627 -0.371153 -17.262304 -5.269401 -1.019210 -3.558520 51.493365 -2.255391 -10.709509 18.546270 -4.078500 0.000000 -61.454100 -7.816726 -0.852536 -2.311174 -2.116592 -0.414199 -2.816759 -5.565098 -0.489261 2.491925 11.644297 -13.154804 -9.783716 -2.063951 -0.135333 -0.558691 0.000000 0.000000 0.000000 -4.231378 23.399430 0.968116 -77.893734 22.493488 6.842563 -3.548832 -24.358926 -0.012835 -4.384765 5.108358 -0.198005 -0.045764 -0.109685 -0.000000 0.000000 0.000000 0.000000 0.000000 0.000000 0.000000 14.403181 -8.061480 -0.113538 51.229555 10.759971 13.040423 2.040887 47.594659 0.010325 2.449685 3.829442 0.083026 0.059354 -0.115174 0.000000 0.000000 0.000000 0.000000 0.000000 0.000000 0.000000 
0.586928 17.015829 -0.136414 18.501098 79.990307 21.114421 -10.313828 1.583479 1.825200 -10.995737 6.437013 -22.886988 -2.103441 0.455586 23.591116 0.858327 4.733749 -5.881174 0.115700 0.000000 -25.596500 11.311725 -3.428902 -2.084022 -0.241152 -17.404362 -6.718998 -1.101156 -3.641232 53.414058 -2.441053 -12.471633 16.860457 -4.580300 0.000000 -57.579800 -7.820943 -0.916901 -2.230971 -2.121415 -0.477039 -2.809497 -5.603262 -0.549736 2.466207 11.699091 -13.235529 -9.775600 -2.102445 -0.138485 -0.556633 0.000000 0.000000 0.000000 -4.152720 23.134652 0.941464 -77.336495 21.691883 6.669248 -3.574254 -24.399988 -0.012544 -4.262073 5.022093 -0.188980 -0.049349 -0.106246 -0.000000 0.000000 0.000000 0.000000 0.000000 0.000000 0.000000 14.589355 -8.151567 -0.133317 51.966649 10.168654 13.249048 2.076981 47.404959 0.010436 2.586418 3.792639 0.086931 0.059386 -0.112173 0.000000 0.000000 0.000000 0.000000 0.000000 0.000000 0.000000 
0.750679 17.021374 -0.117771 17.140811 79.302236 19.657965 -10.348507 1.656344 1.755678 -10.842552 6.809034 -22.108465 -2.092976 0.448989 23.664418 0.938397 5.193598 -6.546713 0.047300 0.000000 -26.266900 11.317971 -3.293019 -2.121927 0.000639 -17.430673 -8.168023 -1.164627 -3.720118 55.100071 -2.579132 -13.849124 14.763568 -4.776600 -0.000001 -53.787400 -7.768920 -0.968555 -2.170371 -2.116269 -0.531486 -2.804803 -5.644358 -0.601608 2.446404 11.745828 -13.315019 -9.764344 -2.144365 -0.141995 -0.553482 0.000000 0.000000 0.000000 -4.084992 22.887500 0.911811 -76.755032 20.854012 6.425550 -3.603079 -24.378442 -0.012246 -4.130976 4.923817 -0.179253 -0.053225 -0.102718 -0.000000 0.000000 0.000000 0.000000 0.000000 0.000000 0.000000 14.782383 -8.239848 -0.156408 52.711048 9.574423 13.417132 2.115731 47.160920 0.010541 2.720638 3.769794 0.090934 0.059409 -0.109214 0.000000 0.000000 0.000000 0.000000 0.000000 0.000000 0.000000 
